<svg width="30" height="30" viewBox="0 0 30 30" fill="none" xmlns="http://www.w3.org/2000/svg">
<path d="M15 30C23.2843 30 30 23.2843 30 15C30 6.71573 23.2843 0 15 0C6.71573 0 0 6.71573 0 15C0 23.2843 6.71573 30 15 30Z" fill="#0E0EE2"/>
<path d="M26.6092 14.0756H23.1217V10.5882C23.1217 10.305 22.891 10.069 22.6025 10.069H21.2338C20.9506 10.069 20.7146 10.2997 20.7146 10.5882V14.0756H17.2272C16.9387 14.0756 16.708 14.3063 16.708 14.5948V15.9635C16.708 16.2467 16.9387 16.4827 17.2272 16.4827H20.7146V19.9701C20.7146 20.2586 20.9454 20.4893 21.2338 20.4893H22.6025C22.8857 20.4893 23.1217 20.2586 23.1217 19.9701V16.4827H26.6092C26.8923 16.4827 27.1283 16.252 27.1283 15.9635V14.5948C27.1283 14.3116 26.8976 14.0756 26.6092 14.0756Z" fill="#FF3EC4"/>
<path d="M4.54673 20.3635H5.87877C6.15672 20.3635 6.38222 20.138 6.38222 19.86V17.5526C6.38222 17.2746 6.60772 17.0491 6.88567 17.0491H11.0339L13.0215 20.1327C13.1158 20.2796 13.2732 20.3635 13.4462 20.3635H15.0352C15.4338 20.3635 15.675 19.923 15.46 19.5821L13.4829 16.5194C14.773 15.7957 15.6383 14.406 15.6016 12.817C15.5492 10.5567 13.6298 8.78415 11.3695 8.78415H4.54673C4.26878 8.78415 4.04328 9.00966 4.04328 9.2876V19.8548C4.04328 20.1327 4.26878 20.3582 4.54673 20.3582V20.3635ZM6.38747 11.1336H11.422C12.3187 11.1336 13.1211 11.7681 13.2522 12.6544C13.4095 13.7557 12.56 14.7049 11.4849 14.7049H6.38747V11.1336Z" fill="white"/>
</svg>